# xmcd
#
# Track frame offsets: 
#        150
#        16332
#        28080
#        39524
#        53422
#        67434
#        81729
#        92418
#        107186
#        119194
#        133316
#        146372
#        162105
#        178883
#        193018
#        212407
#        224138
#        236941
#        255013
#        271168
#
# Disc length: 3787 seconds
#
# Revision: 0
# Processed by: cddbd v1.5.2PL0 Copyright (c) Steve Scherf et al.
# Submitted via: ExactAudioCopy v0.99pb5
#
DISCID=320ec914
DTITLE=Various Artist - Best Of Jazz And Blues, 40 Top Hits
DYEAR=1900
DGENRE=Blues and Jazz
TTITLE0=Glenn Miller - In The Mood
TTITLE1=Louis Armstrong - It's Wonderful
TTITLE2=Eddie "Lean Head" Vinson - Person To Person
TTITLE3=Gene Krupa - All This And Heaven Too
TTITLE4=Duke Ellington - Frankie And Johnnie
TTITLE5=Benny Goodman - Chloe
TTITLE6=Ella Fitzgerald - Didja Mean
TTITLE7=Stephane Grapelli - Love Song
TTITLE8=B. B. King - You Know I Go For You
TTITLE9=Nyles Jones - De Prit And Betty
TTITLE10=Count Basie - Sent For You Yesterday
TTITLE11=Lionel Hampton - Jeepers Creepers
TTITLE12=Jimmy Hamilton - Misty
TTITLE13=Nat King Cole - Dough-Ra-Me
TTITLE14=Dexter Gordon - Lullabye Of Birdland
TTITLE15=Charles Mingus - Just For Laughs, Part 1
TTITLE16=Sidney Bechet - Jerry Roll Blues
TTITLE17=Big Joe Turner - Diney Brown Blues
TTITLE18=Buddy Rich - I'll Never Be The Same
TTITLE19=Django Reinhardt - At The Jimmy's Bar
EXTD=
EXTT0=
EXTT1=
EXTT2=
EXTT3=
EXTT4=
EXTT5=
EXTT6=
EXTT7=
EXTT8=
EXTT9=
EXTT10=
EXTT11=
EXTT12=
EXTT13=
EXTT14=
EXTT15=
EXTT16=
EXTT17=
EXTT18=
EXTT19=
PLAYORDER=
